<svg xmlns="http://www.w3.org/2000/svg" xml:space="preserve" viewBox="0 0 500 200"><path fill="#f39008" d="M26.8 2.9c2.4 1.5 4 3.3 4.6 6.3 3.4 14.8-7.5 48.2-7.5 62.5 0 8 .1 16.4 4.6 23.5s15 12.2 23.9 9.1c8.6-3 11.8-12 11.3-19.8-.9-12.8-8.8-24.5-12.1-37s-.2-28.3 13.8-33.6c9.8-3.7 21.8-.7 29.8 5.2 8 6 12.7 14.4 16.3 22.9 3.3 7.6 5.9 15.6 6.4 23.6 1.5 22.3-12.5 43.3-15.1 65.5-1 8.3-.2 17.1 5.1 24.2 5.3 7.1 16 11.8 25.5 9.3 5.5-1.5 9.8-5 13.7-8.5 4.9-4.4 9.6-9.1 11.9-14.7 9.6-23.4-26-47.1-17.4-70.8.6-1.6 1.5-3.3 3-4.4 4.8-3.3 12.5.9 13.7 6.1 1.2 5.1-1.4 10.2-2.8 15.3s-1.1 11.4 4 14.3c7 4 17-2.1 18.6-9.1 1.6-7-1.9-14-3.9-20.9-3.5-11.9-2.5-24.7 2.7-36.2 3.3-7.4 8.8-14.5 17.2-18.1 8.4-3.6 20.2-2.4 25.4 4.2 3.9 4.8 3.5 11 2.9 16.8-1.7 15.7-4.6 31.4-8.6 46.8-1.5 5.7-3.1 11.7-1.2 17.4 2.4 6.9 10.5 12 19.1 12.4 8.6.4 17.1-3.9 21-10.3 6.9-11.4-.8-24.8-6.4-36.7-5.7-11.9-7.7-28.2 5.4-34.8 9.9-5 23.5-.7 30.5 6.9 7 7.6 8.9 17.6 10 27.2 3.4 30.9.2 62.2-8.6 92.4-2.8 9.6-5.8 20.7 1.5 28.5 8.1 8.6 25.5 7.2 34.5-.7s10.6-20 8.2-30.8-8.1-20.7-12.4-31c-7.3-17.6-10.2-36.5-8.5-55 .6-6.4 1.9-13.1 6.9-17.9s14.8-6.7 20.3-2.2c6.7 5.4 2.7 14.6-.6 21.9S330 90.5 339 92.5c6.1 1.4 12.3-3.1 14-8.2 1.7-5.1.3-10.5-.8-15.7-2.7-12.1-3.8-24.9 1-36.5S369.9 10.2 384.5 9c7.7-.7 17 2.4 18.3 8.8.6 3.2-.8 6.3-2.2 9.3-5 10.8-9.3 21.9-9.4 33.5s4.7 23.5 15.2 31c5.9 4.2 15.3 6.5 21.2 2.3 2.7-1.9 4.1-4.9 4.8-7.9 3.1-13.4-6.3-26.5-8-40.1-2.3-17.3 9-50.3 28-43.2 11.3 4.2-.9 23-3.1 34.6-2.1 11.6 4 27 18.1 27 13 0 19.8-13.6 18.6-24.4-1.1-10.9-6.6-21.7-3.5-32.3 1.2-4.2 5.6-7.4 10.8-7.5L500 0v-102.3H0V0s20.9-.9 26.8 2.9z"/></svg>